<?xml version="1.0" encoding="utf-8"?>
<!-- Generator: Adobe Illustrator 16.0.0, SVG Export Plug-In . SVG Version: 6.00 Build 0)  -->
<!DOCTYPE svg PUBLIC "-//W3C//DTD SVG 1.1//EN" "http://www.w3.org/Graphics/SVG/1.1/DTD/svg11.dtd">
<svg version="1.1" id="Camada_1" xmlns="http://www.w3.org/2000/svg" xmlns:xlink="http://www.w3.org/1999/xlink" x="0px" y="0px"
	 width="210px" height="40.5112305px" viewBox="0 0 210 40.5112305" style="enable-background:new 0 0 210 40.5112305;"
	 xml:space="preserve">
<g>
	<path style="fill-rule:evenodd;clip-rule:evenodd;" d="M210,24.6625977h-4.3457031V13.2192383
		c0-2.378418-1.0556641-3.5644531-3.1660156-3.5644531c-1.2236328,0-2.2041016,0.4477539-2.9375,1.3476563
		c-0.7324219,0.8945313-1.0986328,2.2353516-1.0986328,4.0170898v9.6430664h-4.4023438V13.2192383
		c0-2.4091797-0.9873047-3.6196289-2.9677734-3.6196289c-1.1982422,0-2.2041016,0.4838867-3.0244141,1.4584961
		c-0.8193359,0.96875-1.2294922,2.2915039-1.2294922,3.9614258v9.6430664h-4.2773438V6.2895508h4.0224609v3.9121094
		c1.3105469-2.862793,3.3535156-4.296875,6.1298828-4.296875c2.7070313,0,4.4638672,1.434082,5.2773438,4.296875
		c1.4765625-2.862793,3.5205078-4.296875,6.1279297-4.296875c1.7695313,0,3.1972656,0.5527344,4.2773438,1.6582031
		C209.4609375,8.6679688,210,10.0400391,210,11.6728516V24.6625977z"/>
	<path style="fill-rule:evenodd;clip-rule:evenodd;" d="M171.7304688,21.6264648
		c2.7871094,0,4.1835938-2.0800781,4.1835938-6.2397461c0-1.8818359-0.3349609-3.3662109-0.9990234-4.4462891
		c-0.6708984-1.0869141-1.6943359-1.6333008-3.0742188-1.6333008c-1.4335938,0-2.4951172,0.5654297-3.1845703,1.6831055
		c-0.6894531,1.1240234-1.0371094,2.6137695-1.0371094,4.4707031c0,1.9990234,0.3662109,3.5263672,1.0996094,4.581543
		C169.4501953,21.0991211,170.4570313,21.6264648,171.7304688,21.6264648L171.7304688,21.6264648z M171.5869141,25.0473633
		c-2.7197266-0.0058594-4.7929688-0.9814453-6.2216797-2.9306641c-1.4345703-1.9560547-2.1484375-4.190918-2.1484375-6.7124023
		c0-2.71875,0.7890625-4.9794922,2.3720703-6.7861328c1.5830078-1.8071289,3.6757813-2.7133789,6.2714844-2.7133789
		c2.4580078,0,4.4824219,0.8818359,6.0654297,2.6391602c1.5839844,1.7636719,2.3720703,4.0478516,2.3720703,6.8603516
		c0,2.8999023-0.8193359,5.2285156-2.4648438,6.9916992C176.1875,24.159668,174.1083984,25.0415039,171.5869141,25.0473633z"/>
	<path style="fill-rule:evenodd;clip-rule:evenodd;" d="M158.1806641,17.9130859L161.75,18.2792969
		c-0.4648438,2.3037109-1.3535156,4.0053711-2.6748047,5.1108398c-1.3232422,1.1044922-2.9189453,1.6513672-4.7880859,1.6572266
		c-2.5322266-0.0058594-4.4824219-0.9257813-5.8417969-2.7753906c-1.3662109-1.8505859-2.0498047-4.1166992-2.0498047-6.7929688
		c0-2.769043,0.7451172-5.0541992,2.2353516-6.8608398c1.4960938-1.8071289,3.4833984-2.7133789,5.9667969-2.7133789
		c4.0058594,0,6.3896484,2.1108398,7.1523438,6.3334961l-3.5693359,0.4902344
		c-0.3105469-2.2783203-1.4345703-3.4213867-3.3652344-3.4213867c-1.4033203,0-2.4277344,0.6147461-3.0605469,1.8505859
		c-0.640625,1.2294922-0.9560547,2.7197266-0.9560547,4.4643555c0,1.8564453,0.328125,3.284668,0.9921875,4.2900391
		c0.6582031,1.0063477,1.5839844,1.5092773,2.7695313,1.5092773
		C156.3798828,21.4213867,157.5898438,20.2539063,158.1806641,17.9130859z"/>
	
		<rect x="140.0830078" y="19.894043" style="fill-rule:evenodd;clip-rule:evenodd;fill:#000001;" width="4.4951172" height="4.7685547"/>
	<path style="fill-rule:evenodd;clip-rule:evenodd;" d="M119.1015625,19.409668l5.7373047-0.7827148
		c0.3291016,1.3413086,1.6337891,2.012207,3.9121094,2.012207c1.8876953,0,2.8310547-0.3666992,2.8310547-1.0927734
		c0-0.3168945-0.1796875-0.559082-0.546875-0.7392578c-0.3652344-0.1733398-1.2353516-0.3540039-2.5947266-0.5336914
		c-3.78125-0.5214844-6.1347656-1.3349609-7.0712891-2.4462891c-0.9384766-1.1054688-1.4101563-2.3408203-1.4101563-3.7006836
		c0-1.894043,0.7880859-3.4272461,2.3720703-4.5947266c1.5830078-1.1733398,3.6572266-1.7573242,6.2275391-1.7573242
		c4.5009766,0,7.3701172,1.6142578,8.6113281,4.8496094l-5.4755859,1.0366211
		c-0.515625-1.0927734-1.6025391-1.6396484-3.2539063-1.6396484c-0.7822266,0-1.3720703,0.105957-1.7578125,0.3173828
		c-0.3847656,0.2172852-0.5761719,0.421875-0.5761719,0.6328125c0,0.6025391,0.5820313,0.9750977,1.75,1.1054688
		c3.0361328,0.3413086,5.0986328,0.6831055,6.1777344,1.0371094c1.0810547,0.3476563,2.0058594,0.9936523,2.7705078,1.9243164
		c0.7626953,0.9379883,1.1484375,2.0678711,1.1484375,3.390625c0,2.0239258-0.8457031,3.6323242-2.5400391,4.824707
		c-1.6953125,1.1855469-4.0292969,1.78125-7.0039063,1.78125C123.3925781,25.034668,120.2949219,23.1606445,119.1015625,19.409668z"
		/>
	<path style="fill-rule:evenodd;clip-rule:evenodd;" d="M114.0908203,24.6625977h-6.9667969V6.1469727h6.0722656v3.78125
		c0.6894531-2.769043,2.2861328-4.1538086,4.8007813-4.1538086c0.2539063,0,0.6025391,0.0249023,1.0478516,0.074707v6.4384766
		c-0.5087891-0.1176758-0.9619141-0.1801758-1.359375-0.1801758c-2.3964844,0-3.5947266,1.3476563-3.5947266,4.0361328V24.6625977z"
		/>
	<path style="fill-rule:evenodd;clip-rule:evenodd;" d="M98.3032227,16.0195313
		c-3.0800781,0.3227539-4.6191406,1.3095703-4.6191406,2.9555664c0,1.1113281,0.6083984,1.6640625,1.831543,1.6640625
		c0.7700195,0,1.4277344-0.2299805,1.9736328-0.6894531c0.5410156-0.4594727,0.8139648-1.4716797,0.8139648-3.0419922V16.0195313
		L98.3032227,16.0195313z M105.8291016,24.6625977h-6.8925781c-0.1733398-0.7880859-0.2607422-1.6513672-0.2607422-2.5888672
		c-1.3095703,1.9746094-3.2905273,2.9609375-5.9482422,2.9609375c-2.1850586,0-3.8178711-0.5576172-4.9052734-1.6699219
		c-1.0864258-1.1171875-1.6264648-2.390625-1.6264648-3.8310547c0-1.9492188,0.8881836-3.5268555,2.6635742-4.7314453
		c1.7758789-1.2045898,4.9243164-1.9311523,9.4438477-2.1728516v-0.4223633c0-0.8193359-0.1855469-1.3662109-0.5522461-1.6328125
		c-0.3662109-0.2666016-0.90625-0.4038086-1.6142578-0.4038086c-1.6645508,0-2.5957031,0.6831055-2.7880859,2.0488281
		l-6.6313477-0.6333008c0.9433594-3.8745117,4.159668-5.8115234,9.6494141-5.8115234
		c1.4897461,0,2.855957,0.1489258,4.1040039,0.4467773c1.2480469,0.2983398,2.2348633,0.7578125,2.9619141,1.3911133
		c0.7255859,0.6333008,1.2163086,1.2973633,1.4643555,1.9990234c0.2485352,0.7084961,0.3725586,2.0615234,0.3725586,4.0605469
		v7.3891602C105.2695313,22.4643555,105.456543,23.6694336,105.8291016,24.6625977z"/>
	<path style="fill-rule:evenodd;clip-rule:evenodd;" d="M79.2275391,17.1743164l6.184082,0.527832
		c-0.2915039,2.1665039-1.1977539,3.9301758-2.7192383,5.2905273c-1.527832,1.359375-3.5449219,2.0419922-6.0727539,2.0419922
		c-2.8242188,0-5.1220703-0.8876953-6.8852539-2.6630859c-1.7695313-1.7758789-2.6518555-4.0546875-2.6518555-6.8300781
		c0-2.8378906,0.875-5.1723633,2.6333008-7.0102539c1.7568359-1.8378906,4.0351563-2.7568359,6.8417969-2.7568359
		c2.4902344,0,4.5141602,0.6953125,6.0849609,2.0859375c1.5649414,1.3979492,2.465332,3.1547852,2.6953125,5.2841797
		l-6.3710938,0.5273438c-0.2666016-1.9614258-1.0117188-2.9428711-2.2226563-2.9428711
		c-0.7822266,0-1.3540039,0.3544922-1.7075195,1.0620117c-0.3598633,0.7080078-0.5405273,1.9370117-0.5405273,3.6943359
		c0,1.5087891,0.1806641,2.6323242,0.5405273,3.359375c0.3603516,0.7260742,0.9804688,1.0864258,1.8691406,1.0864258
		C78.2094727,19.9311523,78.9858398,19.012207,79.2275391,17.1743164z"/>
	<path style="fill-rule:evenodd;clip-rule:evenodd;" d="M66.3808594,6.1469727v4.6938477h-3.6884766v6.8242188
		c0,0.9375,0.1743164,1.4897461,0.5273438,1.6635742c0.3481445,0.1801758,0.7143555,0.2670898,1.0869141,0.2670898
		c0.5839844,0,1.2734375-0.0991211,2.0742188-0.2983398v5.1796875c-1.4277344,0.2724609-2.8378906,0.4091797-4.2163086,0.4091797
		c-2.2353516,0-3.8740234-0.4785156-4.9238281-1.4404297c-1.0429688-0.9570313-1.5708008-2.4902344-1.5708008-4.5888672
		l0.019043-2.1669922v-5.8491211h-2.7573242V6.1469727h2.7573242l0.1113281-6.0356445L62.6923828,0v6.1469727H66.3808594z"/>
	<path style="fill-rule:evenodd;clip-rule:evenodd;" d="M52.050293,24.6625977h-7.2646484V13.0078125
		c0-0.9619141-0.1425781-1.5703125-0.4414063-1.8378906c-0.2978516-0.2670898-0.6640625-0.4033203-1.1103516-0.4033203
		c-1.3168945,0-1.9746094,0.9248047-1.9746094,2.769043v11.1269531h-7.2651367V6.1469727h6.7426758v2.6201172
		c0.9941406-1.9931641,2.7700195-2.9926758,5.3212891-2.9926758c1.3476563,0,2.4775391,0.2607422,3.4091797,0.7763672
		c0.9248047,0.5151367,1.5898438,1.1796875,1.9873047,1.9990234c0.3969727,0.8198242,0.5957031,2.2416992,0.5957031,4.2661133
		V24.6625977z"/>
	<path style="fill-rule:evenodd;clip-rule:evenodd;" d="M25.2094727,13.1884766
		c-0.0126953-1.2363281-0.2612305-2.0678711-0.7456055-2.4902344c-0.4833984-0.4282227-1.0859375-0.6396484-1.8061523-0.6396484
		c-1.7016602,0-2.5522461,1.0429688-2.5522461,3.1298828H25.2094727L25.2094727,13.1884766z M25.730957,17.9941406
		l6.7431641,0.4526367c-0.3974609,1.8256836-1.421875,3.3779297-3.0678711,4.6630859
		c-1.6386719,1.2851563-3.8618164,1.9248047-6.6621094,1.9248047c-3.1171875,0-5.6005859-0.8994141-7.4570313-2.7001953
		c-1.8564453-1.8012695-2.7817383-4.0361328-2.7817383-6.699707c0-2.7700195,0.9130859-5.1044922,2.7446289-7.0039063
		c1.831543-1.90625,4.277832-2.8564453,7.3330078-2.8564453c2.9550781,0,5.3461914,0.894043,7.1708984,2.6884766
		c1.8256836,1.7944336,2.7382813,4.234375,2.7382813,7.3203125c0,0.2548828-0.0063477,0.6083984-0.0180664,1.0561523H20.1054688
		c0.0244141,1.1733398,0.2299805,2.0424805,0.6210938,2.6137695c0.3847656,0.5649414,1.1235352,0.8505859,2.2163086,0.8505859
		C24.5263672,20.3037109,25.4516602,19.5336914,25.730957,17.9941406z"/>
	<path style="fill-rule:evenodd;clip-rule:evenodd;" d="M6.9663086,24.6625977H0V6.1469727h6.0722656v3.78125
		c0.6889648-2.769043,2.2851563-4.1538086,4.800293-4.1538086c0.2539063,0,0.6020508,0.0249023,1.0493164,0.074707v6.4384766
		c-0.5097656-0.1176758-0.9628906-0.1801758-1.3598633-0.1801758c-2.3969727,0-3.5957031,1.3476563-3.5957031,4.0361328V24.6625977z
		"/>
	<rect y="27.3100586" style="fill-rule:evenodd;clip-rule:evenodd;fill:#FBA617;" width="137.9433594" height="13.2011719"/>
</g>
<g>
</g>
<g>
</g>
<g>
</g>
<g>
</g>
<g>
</g>
<g>
</g>
</svg>
